<?xml version="1.0" encoding="UTF-8"?>
<svg xmlns="http://www.w3.org/2000/svg" xmlns:xlink="http://www.w3.org/1999/xlink" width="20px" height="15px" viewBox="0 0 20 15" version="1.1">
<g id="surface1">
<rect x="0" y="0" width="20" height="15" style="fill:rgb(100%,100%,100%);fill-opacity:1;stroke:none;"/>
<path style=" stroke:none;fill-rule:evenodd;fill:rgb(85.490196%,0%,0%);fill-opacity:1;" d="M -3.125 10.070312 L 23.125 10.070312 L 23.125 15 L -3.125 15 Z M -3.125 10.070312 "/>
<path style=" stroke:none;fill-rule:evenodd;fill:rgb(100%,100%,100%);fill-opacity:1;" d="M 1.867188 10.28125 L 3.304688 10.28125 L 3.304688 10.378906 L 1.867188 10.378906 Z M 2.082031 10.773438 L 2.179688 10.773438 L 2.179688 10.871094 L 2.082031 10.871094 Z M 3.308594 10.773438 L 3.308594 10.871094 L 3.023438 10.871094 L 3.023438 10.773438 Z M 3.460938 10.28125 L 3.5625 10.28125 L 3.5625 10.867188 L 3.460938 10.867188 Z M 3.460938 10.28125 "/>
<path style=" stroke:none;fill-rule:evenodd;fill:rgb(100%,100%,100%);fill-opacity:1;" d="M 4.035156 10.773438 L 4.035156 10.871094 L 3.492188 10.871094 L 3.492188 10.773438 Z M 3.023438 10.539062 L 3.117188 10.539062 L 3.117188 10.871094 L 3.019531 10.871094 Z M 3.023438 10.539062 "/>
<path style=" stroke:none;fill-rule:evenodd;fill:rgb(100%,100%,100%);fill-opacity:1;" d="M 3.953125 10.28125 L 4.054688 10.28125 L 4.054688 10.867188 L 3.953125 10.867188 Z M 3.707031 10.28125 L 3.804688 10.28125 L 3.804688 10.867188 L 3.707031 10.867188 Z M 2.394531 10.515625 L 2.394531 10.617188 L 1.867188 10.617188 L 1.867188 10.515625 Z M 3.546875 10.515625 L 3.546875 10.617188 L 3.019531 10.617188 L 3.019531 10.515625 Z M 3.546875 10.515625 "/>
<path style=" stroke:none;fill-rule:evenodd;fill:rgb(100%,100%,100%);fill-opacity:1;" d="M 3.023438 10.542969 L 3.117188 10.542969 L 3.117188 10.867188 L 3.019531 10.867188 Z M 3.023438 10.542969 "/>
<path style=" stroke:none;fill-rule:evenodd;fill:rgb(100%,100%,100%);fill-opacity:1;" d="M 3.023438 10.542969 L 3.117188 10.542969 L 3.117188 10.867188 L 3.019531 10.867188 Z M 3.023438 10.542969 "/>
<path style=" stroke:none;fill-rule:evenodd;fill:rgb(100%,100%,100%);fill-opacity:1;" d="M 3.023438 10.542969 L 3.117188 10.542969 L 3.117188 10.867188 L 3.019531 10.867188 Z M 1.871094 10.542969 L 1.96875 10.542969 L 1.96875 10.867188 L 1.871094 10.867188 Z M 2.714844 10.542969 L 2.8125 10.542969 L 2.8125 10.867188 L 2.714844 10.867188 Z M 2.296875 10.542969 L 2.394531 10.542969 L 2.394531 10.867188 L 2.296875 10.867188 Z M 2.296875 10.542969 "/>
<path style=" stroke:none;fill-rule:evenodd;fill:rgb(100%,100%,100%);fill-opacity:1;" d="M 2.78125 10.773438 L 2.78125 10.871094 L 2.339844 10.871094 L 2.339844 10.773438 Z M 2.8125 10.515625 L 2.8125 10.617188 L 2.53125 10.617188 L 2.53125 10.515625 Z M 2.8125 10.515625 "/>
<path style=" stroke:none;fill-rule:evenodd;fill:rgb(100%,100%,100%);fill-opacity:1;" d="M -0.492188 10.28125 L 0.941406 10.28125 L 0.941406 10.378906 L -0.492188 10.378906 Z M -0.28125 10.773438 L -0.179688 10.773438 L -0.179688 10.871094 L -0.28125 10.871094 Z M 0.945312 10.773438 L 0.945312 10.871094 L 0.660156 10.871094 L 0.660156 10.773438 Z M 1.097656 10.28125 L 1.199219 10.28125 L 1.199219 10.867188 L 1.097656 10.867188 Z M 1.097656 10.28125 "/>
<path style=" stroke:none;fill-rule:evenodd;fill:rgb(100%,100%,100%);fill-opacity:1;" d="M 1.671875 10.773438 L 1.671875 10.871094 L 1.128906 10.871094 L 1.128906 10.773438 Z M 0.660156 10.539062 L 0.757812 10.539062 L 0.757812 10.871094 L 0.660156 10.871094 Z M 0.660156 10.539062 "/>
<path style=" stroke:none;fill-rule:evenodd;fill:rgb(100%,100%,100%);fill-opacity:1;" d="M 1.59375 10.28125 L 1.691406 10.28125 L 1.691406 10.867188 L 1.59375 10.867188 Z M 1.34375 10.28125 L 1.441406 10.28125 L 1.441406 10.867188 L 1.34375 10.867188 Z M 0.0351562 10.515625 L 0.0351562 10.617188 L -0.492188 10.617188 L -0.492188 10.515625 Z M 1.183594 10.515625 L 1.183594 10.617188 L 0.65625 10.617188 L 0.65625 10.515625 Z M 1.183594 10.515625 "/>
<path style=" stroke:none;fill-rule:evenodd;fill:rgb(100%,100%,100%);fill-opacity:1;" d="M 0.660156 10.542969 L 0.757812 10.542969 L 0.757812 10.867188 L 0.660156 10.867188 Z M 0.660156 10.542969 "/>
<path style=" stroke:none;fill-rule:evenodd;fill:rgb(100%,100%,100%);fill-opacity:1;" d="M 0.660156 10.542969 L 0.757812 10.542969 L 0.757812 10.867188 L 0.660156 10.867188 Z M 0.660156 10.542969 "/>
<path style=" stroke:none;fill-rule:evenodd;fill:rgb(100%,100%,100%);fill-opacity:1;" d="M 0.660156 10.542969 L 0.757812 10.542969 L 0.757812 10.867188 L 0.660156 10.867188 Z M -0.492188 10.542969 L -0.394531 10.542969 L -0.394531 10.867188 L -0.492188 10.867188 Z M 0.351562 10.542969 L 0.449219 10.542969 L 0.449219 10.867188 L 0.351562 10.867188 Z M -0.0664062 10.542969 L 0.0351562 10.542969 L 0.0351562 10.867188 L -0.0664062 10.867188 Z M -0.0664062 10.542969 "/>
<path style=" stroke:none;fill-rule:evenodd;fill:rgb(100%,100%,100%);fill-opacity:1;" d="M 0.421875 10.773438 L 0.421875 10.871094 L -0.0195312 10.871094 L -0.0195312 10.773438 Z M 0.449219 10.515625 L 0.449219 10.617188 L 0.167969 10.617188 L 0.167969 10.515625 Z M 0.449219 10.515625 "/>
<path style=" stroke:none;fill-rule:evenodd;fill:rgb(100%,100%,100%);fill-opacity:1;" d="M 4.207031 10.28125 L 5.644531 10.28125 L 5.644531 10.378906 L 4.207031 10.378906 Z M 4.421875 10.773438 L 4.523438 10.773438 L 4.523438 10.871094 L 4.421875 10.871094 Z M 5.648438 10.773438 L 5.648438 10.871094 L 5.363281 10.871094 L 5.363281 10.773438 Z M 5.804688 10.28125 L 5.90625 10.28125 L 5.90625 10.867188 L 5.804688 10.867188 Z M 5.804688 10.28125 "/>
<path style=" stroke:none;fill-rule:evenodd;fill:rgb(100%,100%,100%);fill-opacity:1;" d="M 6.375 10.773438 L 6.375 10.871094 L 5.832031 10.871094 L 5.832031 10.773438 Z M 5.363281 10.539062 L 5.460938 10.539062 L 5.460938 10.871094 L 5.363281 10.871094 Z M 5.363281 10.539062 "/>
<path style=" stroke:none;fill-rule:evenodd;fill:rgb(100%,100%,100%);fill-opacity:1;" d="M 6.292969 10.28125 L 6.394531 10.28125 L 6.394531 10.867188 L 6.292969 10.867188 Z M 6.046875 10.28125 L 6.148438 10.28125 L 6.148438 10.867188 L 6.046875 10.867188 Z M 4.734375 10.515625 L 4.734375 10.617188 L 4.207031 10.617188 L 4.207031 10.515625 Z M 5.886719 10.515625 L 5.886719 10.617188 L 5.359375 10.617188 L 5.359375 10.515625 Z M 5.886719 10.515625 "/>
<path style=" stroke:none;fill-rule:evenodd;fill:rgb(100%,100%,100%);fill-opacity:1;" d="M 5.363281 10.542969 L 5.460938 10.542969 L 5.460938 10.867188 L 5.363281 10.867188 Z M 5.363281 10.542969 "/>
<path style=" stroke:none;fill-rule:evenodd;fill:rgb(100%,100%,100%);fill-opacity:1;" d="M 5.363281 10.542969 L 5.460938 10.542969 L 5.460938 10.867188 L 5.363281 10.867188 Z M 5.363281 10.542969 "/>
<path style=" stroke:none;fill-rule:evenodd;fill:rgb(100%,100%,100%);fill-opacity:1;" d="M 5.363281 10.542969 L 5.460938 10.542969 L 5.460938 10.867188 L 5.363281 10.867188 Z M 4.210938 10.542969 L 4.3125 10.542969 L 4.3125 10.867188 L 4.210938 10.867188 Z M 5.054688 10.542969 L 5.15625 10.542969 L 5.15625 10.867188 L 5.054688 10.867188 Z M 4.636719 10.542969 L 4.734375 10.542969 L 4.734375 10.867188 L 4.636719 10.867188 Z M 4.636719 10.542969 "/>
<path style=" stroke:none;fill-rule:evenodd;fill:rgb(100%,100%,100%);fill-opacity:1;" d="M 5.125 10.773438 L 5.125 10.871094 L 4.679688 10.871094 L 4.679688 10.773438 Z M 5.15625 10.515625 L 5.15625 10.617188 L 4.875 10.617188 L 4.875 10.515625 Z M 5.15625 10.515625 "/>
<path style=" stroke:none;fill-rule:evenodd;fill:rgb(100%,100%,100%);fill-opacity:1;" d="M 6.5625 10.28125 L 8 10.28125 L 8 10.378906 L 6.566406 10.378906 Z M 6.78125 10.773438 L 6.875 10.773438 L 6.875 10.871094 L 6.78125 10.871094 Z M 8.003906 10.773438 L 8.003906 10.871094 L 7.71875 10.871094 L 7.71875 10.773438 Z M 8.160156 10.28125 L 8.257812 10.28125 L 8.257812 10.867188 L 8.160156 10.867188 Z M 8.160156 10.28125 "/>
<path style=" stroke:none;fill-rule:evenodd;fill:rgb(100%,100%,100%);fill-opacity:1;" d="M 8.734375 10.773438 L 8.734375 10.871094 L 8.1875 10.871094 L 8.1875 10.773438 Z M 7.71875 10.539062 L 7.816406 10.539062 L 7.816406 10.871094 L 7.71875 10.871094 Z M 7.71875 10.539062 "/>
<path style=" stroke:none;fill-rule:evenodd;fill:rgb(100%,100%,100%);fill-opacity:1;" d="M 8.652344 10.28125 L 8.75 10.28125 L 8.75 10.867188 L 8.652344 10.867188 Z M 8.402344 10.28125 L 8.503906 10.28125 L 8.503906 10.867188 L 8.402344 10.867188 Z M 7.089844 10.515625 L 7.089844 10.617188 L 6.566406 10.617188 L 6.566406 10.515625 Z M 8.242188 10.515625 L 8.242188 10.617188 L 7.71875 10.617188 L 7.71875 10.515625 Z M 8.242188 10.515625 "/>
<path style=" stroke:none;fill-rule:evenodd;fill:rgb(100%,100%,100%);fill-opacity:1;" d="M 7.71875 10.542969 L 7.816406 10.542969 L 7.816406 10.867188 L 7.71875 10.867188 Z M 7.71875 10.542969 "/>
<path style=" stroke:none;fill-rule:evenodd;fill:rgb(100%,100%,100%);fill-opacity:1;" d="M 7.71875 10.542969 L 7.816406 10.542969 L 7.816406 10.867188 L 7.71875 10.867188 Z M 7.71875 10.542969 "/>
<path style=" stroke:none;fill-rule:evenodd;fill:rgb(100%,100%,100%);fill-opacity:1;" d="M 7.71875 10.542969 L 7.816406 10.542969 L 7.816406 10.867188 L 7.71875 10.867188 Z M 6.566406 10.542969 L 6.667969 10.542969 L 6.667969 10.867188 L 6.566406 10.867188 Z M 7.410156 10.542969 L 7.511719 10.542969 L 7.511719 10.867188 L 7.410156 10.867188 Z M 6.996094 10.542969 L 7.089844 10.542969 L 7.089844 10.867188 L 6.996094 10.867188 Z M 6.996094 10.542969 "/>
<path style=" stroke:none;fill-rule:evenodd;fill:rgb(100%,100%,100%);fill-opacity:1;" d="M 7.480469 10.773438 L 7.480469 10.871094 L 7.039062 10.871094 L 7.039062 10.773438 Z M 7.507812 10.515625 L 7.507812 10.617188 L 7.226562 10.617188 L 7.226562 10.515625 Z M 7.507812 10.515625 "/>
<path style=" stroke:none;fill-rule:evenodd;fill:rgb(100%,100%,100%);fill-opacity:1;" d="M 8.929688 10.28125 L 10.367188 10.28125 L 10.367188 10.378906 L 8.929688 10.378906 Z M 9.144531 10.773438 L 9.242188 10.773438 L 9.242188 10.871094 L 9.144531 10.871094 Z M 10.371094 10.773438 L 10.371094 10.871094 L 10.085938 10.871094 L 10.085938 10.773438 Z M 10.527344 10.28125 L 10.625 10.28125 L 10.625 10.867188 L 10.527344 10.867188 Z M 10.527344 10.28125 "/>
<path style=" stroke:none;fill-rule:evenodd;fill:rgb(100%,100%,100%);fill-opacity:1;" d="M 11.097656 10.773438 L 11.097656 10.871094 L 10.554688 10.871094 L 10.554688 10.773438 Z M 10.085938 10.539062 L 10.183594 10.539062 L 10.183594 10.871094 L 10.085938 10.871094 Z M 10.085938 10.539062 "/>
<path style=" stroke:none;fill-rule:evenodd;fill:rgb(100%,100%,100%);fill-opacity:1;" d="M 11.015625 10.28125 L 11.117188 10.28125 L 11.117188 10.867188 L 11.015625 10.867188 Z M 10.769531 10.28125 L 10.871094 10.28125 L 10.871094 10.867188 L 10.769531 10.867188 Z M 9.457031 10.515625 L 9.457031 10.617188 L 8.929688 10.617188 L 8.929688 10.515625 Z M 10.609375 10.515625 L 10.609375 10.617188 L 10.082031 10.617188 L 10.082031 10.515625 Z M 10.609375 10.515625 "/>
<path style=" stroke:none;fill-rule:evenodd;fill:rgb(100%,100%,100%);fill-opacity:1;" d="M 10.085938 10.542969 L 10.183594 10.542969 L 10.183594 10.867188 L 10.085938 10.867188 Z M 10.085938 10.542969 "/>
<path style=" stroke:none;fill-rule:evenodd;fill:rgb(100%,100%,100%);fill-opacity:1;" d="M 10.085938 10.542969 L 10.183594 10.542969 L 10.183594 10.867188 L 10.085938 10.867188 Z M 10.085938 10.542969 "/>
<path style=" stroke:none;fill-rule:evenodd;fill:rgb(100%,100%,100%);fill-opacity:1;" d="M 10.085938 10.542969 L 10.183594 10.542969 L 10.183594 10.867188 L 10.085938 10.867188 Z M 8.933594 10.542969 L 9.03125 10.542969 L 9.03125 10.867188 L 8.933594 10.867188 Z M 9.777344 10.542969 L 9.875 10.542969 L 9.875 10.867188 L 9.777344 10.867188 Z M 9.359375 10.542969 L 9.457031 10.542969 L 9.457031 10.867188 L 9.355469 10.867188 Z M 9.359375 10.542969 "/>
<path style=" stroke:none;fill-rule:evenodd;fill:rgb(100%,100%,100%);fill-opacity:1;" d="M 9.847656 10.773438 L 9.847656 10.871094 L 9.402344 10.871094 L 9.402344 10.773438 Z M 9.875 10.515625 L 9.875 10.617188 L 9.589844 10.617188 L 9.589844 10.515625 Z M 9.875 10.515625 "/>
<path style=" stroke:none;fill-rule:evenodd;fill:rgb(13.72549%,62.352941%,25.098039%);fill-opacity:1;" d="M -3.125 0 L 23.125 0 L 23.125 4.929688 L -3.125 4.929688 Z M -3.125 0 "/>
<path style=" stroke:none;fill-rule:evenodd;fill:rgb(100%,100%,100%);fill-opacity:1;" d="M 11.308594 10.28125 L 12.746094 10.28125 L 12.746094 10.378906 L 11.308594 10.378906 Z M 11.523438 10.773438 L 11.625 10.773438 L 11.625 10.871094 L 11.523438 10.871094 Z M 12.75 10.773438 L 12.75 10.871094 L 12.460938 10.871094 L 12.460938 10.773438 Z M 12.90625 10.28125 L 13.003906 10.28125 L 13.003906 10.867188 L 12.90625 10.867188 Z M 12.90625 10.28125 "/>
<path style=" stroke:none;fill-rule:evenodd;fill:rgb(100%,100%,100%);fill-opacity:1;" d="M 13.476562 10.773438 L 13.476562 10.871094 L 12.933594 10.871094 L 12.933594 10.773438 Z M 12.464844 10.539062 L 12.5625 10.539062 L 12.5625 10.871094 L 12.460938 10.871094 Z M 12.464844 10.539062 "/>
<path style=" stroke:none;fill-rule:evenodd;fill:rgb(100%,100%,100%);fill-opacity:1;" d="M 13.398438 10.28125 L 13.496094 10.28125 L 13.496094 10.867188 L 13.398438 10.867188 Z M 13.148438 10.28125 L 13.25 10.28125 L 13.25 10.867188 L 13.148438 10.867188 Z M 11.835938 10.515625 L 11.835938 10.617188 L 11.308594 10.617188 L 11.308594 10.515625 Z M 12.988281 10.515625 L 12.988281 10.617188 L 12.460938 10.617188 L 12.460938 10.515625 Z M 12.988281 10.515625 "/>
<path style=" stroke:none;fill-rule:evenodd;fill:rgb(100%,100%,100%);fill-opacity:1;" d="M 12.460938 10.542969 L 12.5625 10.542969 L 12.5625 10.867188 L 12.460938 10.867188 Z M 12.460938 10.542969 "/>
<path style=" stroke:none;fill-rule:evenodd;fill:rgb(100%,100%,100%);fill-opacity:1;" d="M 12.460938 10.542969 L 12.5625 10.542969 L 12.5625 10.867188 L 12.460938 10.867188 Z M 12.460938 10.542969 "/>
<path style=" stroke:none;fill-rule:evenodd;fill:rgb(100%,100%,100%);fill-opacity:1;" d="M 12.460938 10.542969 L 12.5625 10.542969 L 12.5625 10.867188 L 12.460938 10.867188 Z M 11.3125 10.542969 L 11.414062 10.542969 L 11.414062 10.867188 L 11.3125 10.867188 Z M 12.15625 10.542969 L 12.257812 10.542969 L 12.257812 10.867188 L 12.15625 10.867188 Z M 11.738281 10.542969 L 11.835938 10.542969 L 11.835938 10.867188 L 11.738281 10.867188 Z M 11.738281 10.542969 "/>
<path style=" stroke:none;fill-rule:evenodd;fill:rgb(100%,100%,100%);fill-opacity:1;" d="M 12.226562 10.773438 L 12.226562 10.871094 L 11.78125 10.871094 L 11.78125 10.773438 Z M 12.257812 10.515625 L 12.257812 10.617188 L 11.976562 10.617188 L 11.976562 10.515625 Z M 12.257812 10.515625 "/>
<path style=" stroke:none;fill-rule:evenodd;fill:rgb(100%,100%,100%);fill-opacity:1;" d="M 13.671875 10.28125 L 15.109375 10.28125 L 15.109375 10.378906 L 13.671875 10.378906 Z M 13.886719 10.773438 L 13.988281 10.773438 L 13.988281 10.871094 L 13.886719 10.871094 Z M 15.117188 10.773438 L 15.117188 10.871094 L 14.828125 10.871094 L 14.828125 10.773438 Z M 15.269531 10.28125 L 15.371094 10.28125 L 15.371094 10.867188 L 15.269531 10.867188 Z M 15.269531 10.28125 "/>
<path style=" stroke:none;fill-rule:evenodd;fill:rgb(100%,100%,100%);fill-opacity:1;" d="M 15.84375 10.773438 L 15.84375 10.871094 L 15.296875 10.871094 L 15.296875 10.773438 Z M 14.828125 10.539062 L 14.925781 10.539062 L 14.925781 10.871094 L 14.828125 10.871094 Z M 14.828125 10.539062 "/>
<path style=" stroke:none;fill-rule:evenodd;fill:rgb(100%,100%,100%);fill-opacity:1;" d="M 15.761719 10.28125 L 15.859375 10.28125 L 15.859375 10.867188 L 15.761719 10.867188 Z M 15.515625 10.28125 L 15.613281 10.28125 L 15.613281 10.867188 L 15.515625 10.867188 Z M 14.203125 10.515625 L 14.203125 10.617188 L 13.675781 10.617188 L 13.675781 10.515625 Z M 15.351562 10.515625 L 15.351562 10.617188 L 14.828125 10.617188 L 14.828125 10.515625 Z M 15.351562 10.515625 "/>
<path style=" stroke:none;fill-rule:evenodd;fill:rgb(100%,100%,100%);fill-opacity:1;" d="M 14.828125 10.542969 L 14.929688 10.542969 L 14.929688 10.867188 L 14.828125 10.867188 Z M 14.828125 10.542969 "/>
<path style=" stroke:none;fill-rule:evenodd;fill:rgb(100%,100%,100%);fill-opacity:1;" d="M 14.828125 10.542969 L 14.929688 10.542969 L 14.929688 10.867188 L 14.828125 10.867188 Z M 14.828125 10.542969 "/>
<path style=" stroke:none;fill-rule:evenodd;fill:rgb(100%,100%,100%);fill-opacity:1;" d="M 14.828125 10.542969 L 14.929688 10.542969 L 14.929688 10.867188 L 14.828125 10.867188 Z M 13.675781 10.542969 L 13.777344 10.542969 L 13.777344 10.867188 L 13.675781 10.867188 Z M 14.519531 10.542969 L 14.621094 10.542969 L 14.621094 10.867188 L 14.519531 10.867188 Z M 14.101562 10.542969 L 14.203125 10.542969 L 14.203125 10.867188 L 14.105469 10.867188 Z M 14.101562 10.542969 "/>
<path style=" stroke:none;fill-rule:evenodd;fill:rgb(100%,100%,100%);fill-opacity:1;" d="M 14.589844 10.773438 L 14.589844 10.871094 L 14.148438 10.871094 L 14.148438 10.773438 Z M 14.621094 10.515625 L 14.621094 10.617188 L 14.335938 10.617188 L 14.335938 10.515625 Z M 14.621094 10.515625 "/>
<path style=" stroke:none;fill-rule:evenodd;fill:rgb(100%,100%,100%);fill-opacity:1;" d="M 16.039062 10.28125 L 17.476562 10.28125 L 17.476562 10.378906 L 16.039062 10.378906 Z M 16.253906 10.773438 L 16.355469 10.773438 L 16.355469 10.871094 L 16.253906 10.871094 Z M 17.484375 10.773438 L 17.484375 10.871094 L 17.195312 10.871094 L 17.195312 10.773438 Z M 17.632812 10.28125 L 17.734375 10.28125 L 17.734375 10.867188 L 17.632812 10.867188 Z M 17.632812 10.28125 "/>
<path style=" stroke:none;fill-rule:evenodd;fill:rgb(100%,100%,100%);fill-opacity:1;" d="M 18.210938 10.773438 L 18.210938 10.871094 L 17.664062 10.871094 L 17.664062 10.773438 Z M 17.191406 10.539062 L 17.292969 10.539062 L 17.292969 10.871094 L 17.191406 10.871094 Z M 17.191406 10.539062 "/>
<path style=" stroke:none;fill-rule:evenodd;fill:rgb(100%,100%,100%);fill-opacity:1;" d="M 18.125 10.28125 L 18.226562 10.28125 L 18.226562 10.867188 L 18.125 10.867188 Z M 17.882812 10.28125 L 17.976562 10.28125 L 17.976562 10.867188 L 17.882812 10.867188 Z M 16.570312 10.515625 L 16.570312 10.617188 L 16.039062 10.617188 L 16.039062 10.515625 Z M 17.71875 10.515625 L 17.71875 10.617188 L 17.191406 10.617188 L 17.191406 10.515625 Z M 17.71875 10.515625 "/>
<path style=" stroke:none;fill-rule:evenodd;fill:rgb(100%,100%,100%);fill-opacity:1;" d="M 17.195312 10.542969 L 17.292969 10.542969 L 17.292969 10.867188 L 17.195312 10.867188 Z M 17.195312 10.542969 "/>
<path style=" stroke:none;fill-rule:evenodd;fill:rgb(100%,100%,100%);fill-opacity:1;" d="M 17.195312 10.542969 L 17.292969 10.542969 L 17.292969 10.867188 L 17.195312 10.867188 Z M 17.195312 10.542969 "/>
<path style=" stroke:none;fill-rule:evenodd;fill:rgb(100%,100%,100%);fill-opacity:1;" d="M 17.195312 10.542969 L 17.292969 10.542969 L 17.292969 10.867188 L 17.195312 10.867188 Z M 16.039062 10.542969 L 16.140625 10.542969 L 16.140625 10.867188 L 16.039062 10.867188 Z M 16.886719 10.542969 L 16.984375 10.542969 L 16.984375 10.867188 L 16.886719 10.867188 Z M 16.46875 10.542969 L 16.570312 10.542969 L 16.570312 10.867188 L 16.46875 10.867188 Z M 16.46875 10.542969 "/>
<path style=" stroke:none;fill-rule:evenodd;fill:rgb(100%,100%,100%);fill-opacity:1;" d="M 16.953125 10.773438 L 16.953125 10.871094 L 16.511719 10.871094 L 16.511719 10.773438 Z M 16.984375 10.515625 L 16.984375 10.617188 L 16.703125 10.617188 L 16.703125 10.515625 Z M 16.984375 10.515625 "/>
<path style=" stroke:none;fill-rule:evenodd;fill:rgb(100%,100%,100%);fill-opacity:1;" d="M 18.421875 10.28125 L 19.855469 10.28125 L 19.855469 10.378906 L 18.421875 10.378906 Z M 18.632812 10.773438 L 18.734375 10.773438 L 18.734375 10.871094 L 18.632812 10.871094 Z M 19.859375 10.773438 L 19.859375 10.871094 L 19.574219 10.871094 L 19.574219 10.773438 Z M 20.015625 10.28125 L 20.113281 10.28125 L 20.113281 10.867188 L 20.015625 10.867188 Z M 20.015625 10.28125 "/>
<path style=" stroke:none;fill-rule:evenodd;fill:rgb(100%,100%,100%);fill-opacity:1;" d="M 20.585938 10.773438 L 20.585938 10.871094 L 20.042969 10.871094 L 20.042969 10.773438 Z M 19.574219 10.539062 L 19.671875 10.539062 L 19.671875 10.871094 L 19.574219 10.871094 Z M 19.574219 10.539062 "/>
<path style=" stroke:none;fill-rule:evenodd;fill:rgb(100%,100%,100%);fill-opacity:1;" d="M 20.507812 10.28125 L 20.605469 10.28125 L 20.605469 10.867188 L 20.507812 10.867188 Z M 20.257812 10.28125 L 20.355469 10.28125 L 20.355469 10.867188 L 20.257812 10.867188 Z M 18.949219 10.515625 L 18.949219 10.617188 L 18.421875 10.617188 L 18.421875 10.515625 Z M 20.097656 10.515625 L 20.097656 10.617188 L 19.570312 10.617188 L 19.570312 10.515625 Z M 20.097656 10.515625 "/>
<path style=" stroke:none;fill-rule:evenodd;fill:rgb(100%,100%,100%);fill-opacity:1;" d="M 19.574219 10.542969 L 19.671875 10.542969 L 19.671875 10.867188 L 19.574219 10.867188 Z M 19.574219 10.542969 "/>
<path style=" stroke:none;fill-rule:evenodd;fill:rgb(100%,100%,100%);fill-opacity:1;" d="M 19.574219 10.542969 L 19.671875 10.542969 L 19.671875 10.867188 L 19.574219 10.867188 Z M 19.574219 10.542969 "/>
<path style=" stroke:none;fill-rule:evenodd;fill:rgb(100%,100%,100%);fill-opacity:1;" d="M 19.574219 10.542969 L 19.671875 10.542969 L 19.671875 10.867188 L 19.574219 10.867188 Z M 18.421875 10.542969 L 18.519531 10.542969 L 18.519531 10.867188 L 18.421875 10.867188 Z M 19.265625 10.542969 L 19.367188 10.542969 L 19.367188 10.867188 L 19.265625 10.867188 Z M 18.847656 10.542969 L 18.945312 10.542969 L 18.945312 10.867188 L 18.847656 10.867188 Z M 18.847656 10.542969 "/>
<path style=" stroke:none;fill-rule:evenodd;fill:rgb(100%,100%,100%);fill-opacity:1;" d="M 19.335938 10.773438 L 19.335938 10.871094 L 18.890625 10.871094 L 18.890625 10.773438 Z M 19.363281 10.515625 L 19.363281 10.617188 L 19.082031 10.617188 L 19.082031 10.515625 Z M 19.363281 10.515625 "/>
<path style=" stroke:none;fill-rule:evenodd;fill:rgb(100%,100%,100%);fill-opacity:1;" d="M 1.867188 4.203125 L 3.304688 4.203125 L 3.304688 4.300781 L 1.867188 4.300781 Z M 2.082031 4.699219 L 2.179688 4.699219 L 2.179688 4.792969 L 2.082031 4.792969 Z M 3.308594 4.695312 L 3.308594 4.792969 L 3.023438 4.792969 L 3.023438 4.695312 Z M 3.460938 4.203125 L 3.5625 4.203125 L 3.5625 4.792969 L 3.460938 4.792969 Z M 3.460938 4.203125 "/>
<path style=" stroke:none;fill-rule:evenodd;fill:rgb(100%,100%,100%);fill-opacity:1;" d="M 4.035156 4.695312 L 4.035156 4.792969 L 3.492188 4.792969 L 3.492188 4.695312 Z M 3.023438 4.460938 L 3.117188 4.460938 L 3.117188 4.792969 L 3.019531 4.792969 Z M 3.023438 4.460938 "/>
<path style=" stroke:none;fill-rule:evenodd;fill:rgb(100%,100%,100%);fill-opacity:1;" d="M 3.953125 4.203125 L 4.054688 4.203125 L 4.054688 4.792969 L 3.953125 4.792969 Z M 3.707031 4.203125 L 3.804688 4.203125 L 3.804688 4.792969 L 3.707031 4.792969 Z M 2.394531 4.4375 L 2.394531 4.535156 L 1.867188 4.535156 L 1.867188 4.4375 Z M 3.546875 4.4375 L 3.546875 4.535156 L 3.019531 4.535156 L 3.019531 4.4375 Z M 3.546875 4.4375 "/>
<path style=" stroke:none;fill-rule:evenodd;fill:rgb(100%,100%,100%);fill-opacity:1;" d="M 3.023438 4.460938 L 3.117188 4.460938 L 3.117188 4.792969 L 3.019531 4.792969 Z M 3.023438 4.460938 "/>
<path style=" stroke:none;fill-rule:evenodd;fill:rgb(100%,100%,100%);fill-opacity:1;" d="M 3.023438 4.460938 L 3.117188 4.460938 L 3.117188 4.792969 L 3.019531 4.792969 Z M 3.023438 4.460938 "/>
<path style=" stroke:none;fill-rule:evenodd;fill:rgb(100%,100%,100%);fill-opacity:1;" d="M 3.023438 4.460938 L 3.117188 4.460938 L 3.117188 4.792969 L 3.019531 4.792969 Z M 1.871094 4.460938 L 1.96875 4.460938 L 1.96875 4.792969 L 1.871094 4.792969 Z M 2.714844 4.460938 L 2.8125 4.460938 L 2.8125 4.792969 L 2.714844 4.792969 Z M 2.296875 4.460938 L 2.394531 4.460938 L 2.394531 4.792969 L 2.296875 4.792969 Z M 2.296875 4.460938 "/>
<path style=" stroke:none;fill-rule:evenodd;fill:rgb(100%,100%,100%);fill-opacity:1;" d="M 2.78125 4.695312 L 2.78125 4.792969 L 2.339844 4.792969 L 2.339844 4.695312 Z M 2.8125 4.4375 L 2.8125 4.535156 L 2.53125 4.535156 L 2.53125 4.4375 Z M 2.8125 4.4375 "/>
<path style=" stroke:none;fill-rule:evenodd;fill:rgb(100%,100%,100%);fill-opacity:1;" d="M -0.492188 4.203125 L 0.941406 4.203125 L 0.941406 4.300781 L -0.492188 4.300781 Z M -0.28125 4.699219 L -0.179688 4.699219 L -0.179688 4.792969 L -0.28125 4.792969 Z M 0.945312 4.695312 L 0.945312 4.792969 L 0.660156 4.792969 L 0.660156 4.695312 Z M 1.097656 4.203125 L 1.199219 4.203125 L 1.199219 4.792969 L 1.097656 4.792969 Z M 1.097656 4.203125 "/>
<path style=" stroke:none;fill-rule:evenodd;fill:rgb(100%,100%,100%);fill-opacity:1;" d="M 1.671875 4.695312 L 1.671875 4.792969 L 1.128906 4.792969 L 1.128906 4.695312 Z M 0.660156 4.460938 L 0.757812 4.460938 L 0.757812 4.792969 L 0.660156 4.792969 Z M 0.660156 4.460938 "/>
<path style=" stroke:none;fill-rule:evenodd;fill:rgb(100%,100%,100%);fill-opacity:1;" d="M 1.59375 4.203125 L 1.691406 4.203125 L 1.691406 4.792969 L 1.59375 4.792969 Z M 1.34375 4.203125 L 1.441406 4.203125 L 1.441406 4.792969 L 1.34375 4.792969 Z M 0.0351562 4.4375 L 0.0351562 4.535156 L -0.492188 4.535156 L -0.492188 4.4375 Z M 1.183594 4.4375 L 1.183594 4.535156 L 0.65625 4.535156 L 0.65625 4.4375 Z M 1.183594 4.4375 "/>
<path style=" stroke:none;fill-rule:evenodd;fill:rgb(100%,100%,100%);fill-opacity:1;" d="M 0.660156 4.460938 L 0.757812 4.460938 L 0.757812 4.792969 L 0.660156 4.792969 Z M 0.660156 4.460938 "/>
<path style=" stroke:none;fill-rule:evenodd;fill:rgb(100%,100%,100%);fill-opacity:1;" d="M 0.660156 4.460938 L 0.757812 4.460938 L 0.757812 4.792969 L 0.660156 4.792969 Z M 0.660156 4.460938 "/>
<path style=" stroke:none;fill-rule:evenodd;fill:rgb(100%,100%,100%);fill-opacity:1;" d="M 0.660156 4.460938 L 0.757812 4.460938 L 0.757812 4.792969 L 0.660156 4.792969 Z M -0.492188 4.460938 L -0.394531 4.460938 L -0.394531 4.792969 L -0.492188 4.792969 Z M 0.351562 4.460938 L 0.449219 4.460938 L 0.449219 4.792969 L 0.351562 4.792969 Z M -0.0664062 4.460938 L 0.0351562 4.460938 L 0.0351562 4.792969 L -0.0664062 4.792969 Z M -0.0664062 4.460938 "/>
<path style=" stroke:none;fill-rule:evenodd;fill:rgb(100%,100%,100%);fill-opacity:1;" d="M 0.421875 4.695312 L 0.421875 4.792969 L -0.0195312 4.792969 L -0.0195312 4.695312 Z M 0.449219 4.4375 L 0.449219 4.535156 L 0.167969 4.535156 L 0.167969 4.4375 Z M 0.449219 4.4375 "/>
<path style=" stroke:none;fill-rule:evenodd;fill:rgb(100%,100%,100%);fill-opacity:1;" d="M 4.207031 4.203125 L 5.644531 4.203125 L 5.644531 4.300781 L 4.207031 4.300781 Z M 4.421875 4.699219 L 4.523438 4.699219 L 4.523438 4.792969 L 4.421875 4.792969 Z M 5.648438 4.695312 L 5.648438 4.792969 L 5.363281 4.792969 L 5.363281 4.695312 Z M 5.804688 4.203125 L 5.90625 4.203125 L 5.90625 4.792969 L 5.804688 4.792969 Z M 5.804688 4.203125 "/>
<path style=" stroke:none;fill-rule:evenodd;fill:rgb(100%,100%,100%);fill-opacity:1;" d="M 6.375 4.695312 L 6.375 4.792969 L 5.832031 4.792969 L 5.832031 4.695312 Z M 5.363281 4.460938 L 5.460938 4.460938 L 5.460938 4.792969 L 5.363281 4.792969 Z M 5.363281 4.460938 "/>
<path style=" stroke:none;fill-rule:evenodd;fill:rgb(100%,100%,100%);fill-opacity:1;" d="M 6.292969 4.203125 L 6.394531 4.203125 L 6.394531 4.792969 L 6.292969 4.792969 Z M 6.046875 4.203125 L 6.148438 4.203125 L 6.148438 4.792969 L 6.046875 4.792969 Z M 4.734375 4.4375 L 4.734375 4.535156 L 4.207031 4.535156 L 4.207031 4.4375 Z M 5.886719 4.4375 L 5.886719 4.535156 L 5.359375 4.535156 L 5.359375 4.4375 Z M 5.886719 4.4375 "/>
<path style=" stroke:none;fill-rule:evenodd;fill:rgb(100%,100%,100%);fill-opacity:1;" d="M 5.363281 4.460938 L 5.460938 4.460938 L 5.460938 4.792969 L 5.363281 4.792969 Z M 5.363281 4.460938 "/>
<path style=" stroke:none;fill-rule:evenodd;fill:rgb(100%,100%,100%);fill-opacity:1;" d="M 5.363281 4.460938 L 5.460938 4.460938 L 5.460938 4.792969 L 5.363281 4.792969 Z M 5.363281 4.460938 "/>
<path style=" stroke:none;fill-rule:evenodd;fill:rgb(100%,100%,100%);fill-opacity:1;" d="M 5.363281 4.460938 L 5.460938 4.460938 L 5.460938 4.792969 L 5.363281 4.792969 Z M 4.210938 4.460938 L 4.3125 4.460938 L 4.3125 4.792969 L 4.210938 4.792969 Z M 5.054688 4.460938 L 5.15625 4.460938 L 5.15625 4.792969 L 5.054688 4.792969 Z M 4.636719 4.460938 L 4.734375 4.460938 L 4.734375 4.792969 L 4.636719 4.792969 Z M 4.636719 4.460938 "/>
<path style=" stroke:none;fill-rule:evenodd;fill:rgb(100%,100%,100%);fill-opacity:1;" d="M 5.125 4.695312 L 5.125 4.792969 L 4.679688 4.792969 L 4.679688 4.695312 Z M 5.15625 4.4375 L 5.15625 4.535156 L 4.875 4.535156 L 4.875 4.4375 Z M 5.15625 4.4375 "/>
<path style=" stroke:none;fill-rule:evenodd;fill:rgb(100%,100%,100%);fill-opacity:1;" d="M 6.5625 4.203125 L 8 4.203125 L 8 4.300781 L 6.566406 4.300781 Z M 6.78125 4.699219 L 6.875 4.699219 L 6.875 4.792969 L 6.78125 4.792969 Z M 8.003906 4.695312 L 8.003906 4.792969 L 7.71875 4.792969 L 7.71875 4.695312 Z M 8.160156 4.203125 L 8.257812 4.203125 L 8.257812 4.792969 L 8.160156 4.792969 Z M 8.160156 4.203125 "/>
<path style=" stroke:none;fill-rule:evenodd;fill:rgb(100%,100%,100%);fill-opacity:1;" d="M 8.734375 4.695312 L 8.734375 4.792969 L 8.1875 4.792969 L 8.1875 4.695312 Z M 7.71875 4.460938 L 7.816406 4.460938 L 7.816406 4.792969 L 7.71875 4.792969 Z M 7.71875 4.460938 "/>
<path style=" stroke:none;fill-rule:evenodd;fill:rgb(100%,100%,100%);fill-opacity:1;" d="M 8.652344 4.203125 L 8.75 4.203125 L 8.75 4.792969 L 8.652344 4.792969 Z M 8.402344 4.203125 L 8.503906 4.203125 L 8.503906 4.792969 L 8.402344 4.792969 Z M 7.089844 4.4375 L 7.089844 4.535156 L 6.566406 4.535156 L 6.566406 4.4375 Z M 8.242188 4.4375 L 8.242188 4.535156 L 7.71875 4.535156 L 7.71875 4.4375 Z M 8.242188 4.4375 "/>
<path style=" stroke:none;fill-rule:evenodd;fill:rgb(100%,100%,100%);fill-opacity:1;" d="M 7.71875 4.460938 L 7.816406 4.460938 L 7.816406 4.792969 L 7.71875 4.792969 Z M 7.71875 4.460938 "/>
<path style=" stroke:none;fill-rule:evenodd;fill:rgb(100%,100%,100%);fill-opacity:1;" d="M 7.71875 4.460938 L 7.816406 4.460938 L 7.816406 4.792969 L 7.71875 4.792969 Z M 7.71875 4.460938 "/>
<path style=" stroke:none;fill-rule:evenodd;fill:rgb(100%,100%,100%);fill-opacity:1;" d="M 7.71875 4.460938 L 7.816406 4.460938 L 7.816406 4.792969 L 7.71875 4.792969 Z M 6.566406 4.460938 L 6.667969 4.460938 L 6.667969 4.792969 L 6.566406 4.792969 Z M 7.410156 4.460938 L 7.511719 4.460938 L 7.511719 4.792969 L 7.410156 4.792969 Z M 6.996094 4.460938 L 7.089844 4.460938 L 7.089844 4.792969 L 6.996094 4.792969 Z M 6.996094 4.460938 "/>
<path style=" stroke:none;fill-rule:evenodd;fill:rgb(100%,100%,100%);fill-opacity:1;" d="M 7.480469 4.695312 L 7.480469 4.792969 L 7.039062 4.792969 L 7.039062 4.695312 Z M 7.507812 4.4375 L 7.507812 4.535156 L 7.226562 4.535156 L 7.226562 4.4375 Z M 7.507812 4.4375 "/>
<path style=" stroke:none;fill-rule:evenodd;fill:rgb(100%,100%,100%);fill-opacity:1;" d="M 8.929688 4.203125 L 10.367188 4.203125 L 10.367188 4.300781 L 8.929688 4.300781 Z M 9.144531 4.699219 L 9.242188 4.699219 L 9.242188 4.792969 L 9.144531 4.792969 Z M 10.371094 4.695312 L 10.371094 4.792969 L 10.085938 4.792969 L 10.085938 4.695312 Z M 10.527344 4.203125 L 10.625 4.203125 L 10.625 4.792969 L 10.527344 4.792969 Z M 10.527344 4.203125 "/>
<path style=" stroke:none;fill-rule:evenodd;fill:rgb(100%,100%,100%);fill-opacity:1;" d="M 11.097656 4.695312 L 11.097656 4.792969 L 10.554688 4.792969 L 10.554688 4.695312 Z M 10.085938 4.460938 L 10.183594 4.460938 L 10.183594 4.792969 L 10.085938 4.792969 Z M 10.085938 4.460938 "/>
<path style=" stroke:none;fill-rule:evenodd;fill:rgb(100%,100%,100%);fill-opacity:1;" d="M 11.015625 4.203125 L 11.117188 4.203125 L 11.117188 4.792969 L 11.015625 4.792969 Z M 10.769531 4.203125 L 10.871094 4.203125 L 10.871094 4.792969 L 10.769531 4.792969 Z M 9.457031 4.4375 L 9.457031 4.535156 L 8.929688 4.535156 L 8.929688 4.4375 Z M 10.609375 4.4375 L 10.609375 4.535156 L 10.082031 4.535156 L 10.082031 4.4375 Z M 10.609375 4.4375 "/>
<path style=" stroke:none;fill-rule:evenodd;fill:rgb(100%,100%,100%);fill-opacity:1;" d="M 10.085938 4.460938 L 10.183594 4.460938 L 10.183594 4.792969 L 10.085938 4.792969 Z M 10.085938 4.460938 "/>
<path style=" stroke:none;fill-rule:evenodd;fill:rgb(100%,100%,100%);fill-opacity:1;" d="M 10.085938 4.460938 L 10.183594 4.460938 L 10.183594 4.792969 L 10.085938 4.792969 Z M 10.085938 4.460938 "/>
<path style=" stroke:none;fill-rule:evenodd;fill:rgb(100%,100%,100%);fill-opacity:1;" d="M 10.085938 4.460938 L 10.183594 4.460938 L 10.183594 4.792969 L 10.085938 4.792969 Z M 8.933594 4.460938 L 9.03125 4.460938 L 9.03125 4.792969 L 8.933594 4.792969 Z M 9.777344 4.460938 L 9.875 4.460938 L 9.875 4.792969 L 9.777344 4.792969 Z M 9.359375 4.460938 L 9.457031 4.460938 L 9.457031 4.792969 L 9.355469 4.792969 Z M 9.359375 4.460938 "/>
<path style=" stroke:none;fill-rule:evenodd;fill:rgb(100%,100%,100%);fill-opacity:1;" d="M 9.847656 4.695312 L 9.847656 4.792969 L 9.402344 4.792969 L 9.402344 4.695312 Z M 9.875 4.4375 L 9.875 4.535156 L 9.589844 4.535156 L 9.589844 4.4375 Z M 9.875 4.4375 "/>
<path style=" stroke:none;fill-rule:evenodd;fill:rgb(100%,100%,100%);fill-opacity:1;" d="M 11.308594 4.203125 L 12.746094 4.203125 L 12.746094 4.300781 L 11.308594 4.300781 Z M 11.523438 4.699219 L 11.625 4.699219 L 11.625 4.792969 L 11.523438 4.792969 Z M 12.75 4.695312 L 12.75 4.792969 L 12.460938 4.792969 L 12.460938 4.695312 Z M 12.90625 4.203125 L 13.003906 4.203125 L 13.003906 4.792969 L 12.90625 4.792969 Z M 12.90625 4.203125 "/>
<path style=" stroke:none;fill-rule:evenodd;fill:rgb(100%,100%,100%);fill-opacity:1;" d="M 13.476562 4.695312 L 13.476562 4.792969 L 12.933594 4.792969 L 12.933594 4.695312 Z M 12.464844 4.460938 L 12.5625 4.460938 L 12.5625 4.792969 L 12.460938 4.792969 Z M 12.464844 4.460938 "/>
<path style=" stroke:none;fill-rule:evenodd;fill:rgb(100%,100%,100%);fill-opacity:1;" d="M 13.398438 4.203125 L 13.496094 4.203125 L 13.496094 4.792969 L 13.398438 4.792969 Z M 13.148438 4.203125 L 13.25 4.203125 L 13.25 4.792969 L 13.148438 4.792969 Z M 11.835938 4.4375 L 11.835938 4.535156 L 11.308594 4.535156 L 11.308594 4.4375 Z M 12.988281 4.4375 L 12.988281 4.535156 L 12.460938 4.535156 L 12.460938 4.4375 Z M 12.988281 4.4375 "/>
<path style=" stroke:none;fill-rule:evenodd;fill:rgb(100%,100%,100%);fill-opacity:1;" d="M 12.460938 4.460938 L 12.5625 4.460938 L 12.5625 4.792969 L 12.460938 4.792969 Z M 12.460938 4.460938 "/>
<path style=" stroke:none;fill-rule:evenodd;fill:rgb(100%,100%,100%);fill-opacity:1;" d="M 12.460938 4.460938 L 12.5625 4.460938 L 12.5625 4.792969 L 12.460938 4.792969 Z M 12.460938 4.460938 "/>
<path style=" stroke:none;fill-rule:evenodd;fill:rgb(100%,100%,100%);fill-opacity:1;" d="M 12.460938 4.460938 L 12.5625 4.460938 L 12.5625 4.792969 L 12.460938 4.792969 Z M 11.3125 4.460938 L 11.414062 4.460938 L 11.414062 4.792969 L 11.3125 4.792969 Z M 12.15625 4.460938 L 12.257812 4.460938 L 12.257812 4.792969 L 12.15625 4.792969 Z M 11.738281 4.460938 L 11.835938 4.460938 L 11.835938 4.792969 L 11.738281 4.792969 Z M 11.738281 4.460938 "/>
<path style=" stroke:none;fill-rule:evenodd;fill:rgb(100%,100%,100%);fill-opacity:1;" d="M 12.226562 4.695312 L 12.226562 4.792969 L 11.78125 4.792969 L 11.78125 4.695312 Z M 12.257812 4.4375 L 12.257812 4.535156 L 11.976562 4.535156 L 11.976562 4.4375 Z M 12.257812 4.4375 "/>
<path style=" stroke:none;fill-rule:evenodd;fill:rgb(100%,100%,100%);fill-opacity:1;" d="M 13.671875 4.203125 L 15.109375 4.203125 L 15.109375 4.300781 L 13.671875 4.300781 Z M 13.886719 4.699219 L 13.988281 4.699219 L 13.988281 4.792969 L 13.886719 4.792969 Z M 15.117188 4.695312 L 15.117188 4.792969 L 14.828125 4.792969 L 14.828125 4.695312 Z M 15.269531 4.203125 L 15.371094 4.203125 L 15.371094 4.792969 L 15.269531 4.792969 Z M 15.269531 4.203125 "/>
<path style=" stroke:none;fill-rule:evenodd;fill:rgb(100%,100%,100%);fill-opacity:1;" d="M 15.84375 4.695312 L 15.84375 4.792969 L 15.296875 4.792969 L 15.296875 4.695312 Z M 14.828125 4.460938 L 14.925781 4.460938 L 14.925781 4.792969 L 14.828125 4.792969 Z M 14.828125 4.460938 "/>
<path style=" stroke:none;fill-rule:evenodd;fill:rgb(100%,100%,100%);fill-opacity:1;" d="M 15.761719 4.203125 L 15.859375 4.203125 L 15.859375 4.792969 L 15.761719 4.792969 Z M 15.515625 4.203125 L 15.613281 4.203125 L 15.613281 4.792969 L 15.515625 4.792969 Z M 14.203125 4.4375 L 14.203125 4.535156 L 13.675781 4.535156 L 13.675781 4.4375 Z M 15.351562 4.4375 L 15.351562 4.535156 L 14.828125 4.535156 L 14.828125 4.4375 Z M 15.351562 4.4375 "/>
<path style=" stroke:none;fill-rule:evenodd;fill:rgb(100%,100%,100%);fill-opacity:1;" d="M 14.828125 4.460938 L 14.929688 4.460938 L 14.929688 4.792969 L 14.828125 4.792969 Z M 14.828125 4.460938 "/>
<path style=" stroke:none;fill-rule:evenodd;fill:rgb(100%,100%,100%);fill-opacity:1;" d="M 14.828125 4.460938 L 14.929688 4.460938 L 14.929688 4.792969 L 14.828125 4.792969 Z M 14.828125 4.460938 "/>
<path style=" stroke:none;fill-rule:evenodd;fill:rgb(100%,100%,100%);fill-opacity:1;" d="M 14.828125 4.460938 L 14.929688 4.460938 L 14.929688 4.792969 L 14.828125 4.792969 Z M 13.675781 4.460938 L 13.777344 4.460938 L 13.777344 4.792969 L 13.675781 4.792969 Z M 14.519531 4.460938 L 14.621094 4.460938 L 14.621094 4.792969 L 14.519531 4.792969 Z M 14.101562 4.460938 L 14.203125 4.460938 L 14.203125 4.792969 L 14.105469 4.792969 Z M 14.101562 4.460938 "/>
<path style=" stroke:none;fill-rule:evenodd;fill:rgb(100%,100%,100%);fill-opacity:1;" d="M 14.589844 4.695312 L 14.589844 4.792969 L 14.148438 4.792969 L 14.148438 4.695312 Z M 14.621094 4.4375 L 14.621094 4.535156 L 14.335938 4.535156 L 14.335938 4.4375 Z M 14.621094 4.4375 "/>
<path style=" stroke:none;fill-rule:evenodd;fill:rgb(100%,100%,100%);fill-opacity:1;" d="M 16.039062 4.203125 L 17.476562 4.203125 L 17.476562 4.300781 L 16.039062 4.300781 Z M 16.253906 4.699219 L 16.355469 4.699219 L 16.355469 4.792969 L 16.253906 4.792969 Z M 17.484375 4.695312 L 17.484375 4.792969 L 17.195312 4.792969 L 17.195312 4.695312 Z M 17.632812 4.203125 L 17.734375 4.203125 L 17.734375 4.792969 L 17.632812 4.792969 Z M 17.632812 4.203125 "/>
<path style=" stroke:none;fill-rule:evenodd;fill:rgb(100%,100%,100%);fill-opacity:1;" d="M 18.210938 4.695312 L 18.210938 4.792969 L 17.664062 4.792969 L 17.664062 4.695312 Z M 17.191406 4.460938 L 17.292969 4.460938 L 17.292969 4.792969 L 17.191406 4.792969 Z M 17.191406 4.460938 "/>
<path style=" stroke:none;fill-rule:evenodd;fill:rgb(100%,100%,100%);fill-opacity:1;" d="M 18.125 4.203125 L 18.226562 4.203125 L 18.226562 4.792969 L 18.125 4.792969 Z M 17.882812 4.203125 L 17.976562 4.203125 L 17.976562 4.792969 L 17.882812 4.792969 Z M 16.570312 4.4375 L 16.570312 4.535156 L 16.039062 4.535156 L 16.039062 4.4375 Z M 17.71875 4.4375 L 17.71875 4.535156 L 17.191406 4.535156 L 17.191406 4.4375 Z M 17.71875 4.4375 "/>
<path style=" stroke:none;fill-rule:evenodd;fill:rgb(100%,100%,100%);fill-opacity:1;" d="M 17.195312 4.460938 L 17.292969 4.460938 L 17.292969 4.792969 L 17.195312 4.792969 Z M 17.195312 4.460938 "/>
<path style=" stroke:none;fill-rule:evenodd;fill:rgb(100%,100%,100%);fill-opacity:1;" d="M 17.195312 4.460938 L 17.292969 4.460938 L 17.292969 4.792969 L 17.195312 4.792969 Z M 17.195312 4.460938 "/>
<path style=" stroke:none;fill-rule:evenodd;fill:rgb(100%,100%,100%);fill-opacity:1;" d="M 17.195312 4.460938 L 17.292969 4.460938 L 17.292969 4.792969 L 17.195312 4.792969 Z M 16.039062 4.460938 L 16.140625 4.460938 L 16.140625 4.792969 L 16.039062 4.792969 Z M 16.886719 4.460938 L 16.984375 4.460938 L 16.984375 4.792969 L 16.886719 4.792969 Z M 16.46875 4.460938 L 16.570312 4.460938 L 16.570312 4.792969 L 16.46875 4.792969 Z M 16.46875 4.460938 "/>
<path style=" stroke:none;fill-rule:evenodd;fill:rgb(100%,100%,100%);fill-opacity:1;" d="M 16.953125 4.695312 L 16.953125 4.792969 L 16.511719 4.792969 L 16.511719 4.695312 Z M 16.984375 4.4375 L 16.984375 4.535156 L 16.703125 4.535156 L 16.703125 4.4375 Z M 16.984375 4.4375 "/>
<path style=" stroke:none;fill-rule:evenodd;fill:rgb(100%,100%,100%);fill-opacity:1;" d="M 18.421875 4.203125 L 19.855469 4.203125 L 19.855469 4.300781 L 18.421875 4.300781 Z M 18.632812 4.699219 L 18.734375 4.699219 L 18.734375 4.792969 L 18.632812 4.792969 Z M 19.859375 4.695312 L 19.859375 4.792969 L 19.574219 4.792969 L 19.574219 4.695312 Z M 20.015625 4.203125 L 20.113281 4.203125 L 20.113281 4.792969 L 20.015625 4.792969 Z M 20.015625 4.203125 "/>
<path style=" stroke:none;fill-rule:evenodd;fill:rgb(100%,100%,100%);fill-opacity:1;" d="M 20.585938 4.695312 L 20.585938 4.792969 L 20.042969 4.792969 L 20.042969 4.695312 Z M 19.574219 4.460938 L 19.671875 4.460938 L 19.671875 4.792969 L 19.574219 4.792969 Z M 19.574219 4.460938 "/>
<path style=" stroke:none;fill-rule:evenodd;fill:rgb(100%,100%,100%);fill-opacity:1;" d="M 20.507812 4.203125 L 20.605469 4.203125 L 20.605469 4.792969 L 20.507812 4.792969 Z M 20.257812 4.203125 L 20.355469 4.203125 L 20.355469 4.792969 L 20.257812 4.792969 Z M 18.949219 4.4375 L 18.949219 4.535156 L 18.421875 4.535156 L 18.421875 4.4375 Z M 20.097656 4.4375 L 20.097656 4.535156 L 19.570312 4.535156 L 19.570312 4.4375 Z M 20.097656 4.4375 "/>
<path style=" stroke:none;fill-rule:evenodd;fill:rgb(100%,100%,100%);fill-opacity:1;" d="M 19.574219 4.460938 L 19.671875 4.460938 L 19.671875 4.792969 L 19.574219 4.792969 Z M 19.574219 4.460938 "/>
<path style=" stroke:none;fill-rule:evenodd;fill:rgb(100%,100%,100%);fill-opacity:1;" d="M 19.574219 4.460938 L 19.671875 4.460938 L 19.671875 4.792969 L 19.574219 4.792969 Z M 19.574219 4.460938 "/>
<path style=" stroke:none;fill-rule:evenodd;fill:rgb(100%,100%,100%);fill-opacity:1;" d="M 19.574219 4.460938 L 19.671875 4.460938 L 19.671875 4.792969 L 19.574219 4.792969 Z M 18.421875 4.460938 L 18.519531 4.460938 L 18.519531 4.792969 L 18.421875 4.792969 Z M 19.265625 4.460938 L 19.367188 4.460938 L 19.367188 4.792969 L 19.265625 4.792969 Z M 18.847656 4.460938 L 18.945312 4.460938 L 18.945312 4.792969 L 18.847656 4.792969 Z M 18.847656 4.460938 "/>
<path style=" stroke:none;fill-rule:evenodd;fill:rgb(100%,100%,100%);fill-opacity:1;" d="M 19.335938 4.695312 L 19.335938 4.792969 L 18.890625 4.792969 L 18.890625 4.695312 Z M 19.363281 4.4375 L 19.363281 4.535156 L 19.082031 4.535156 L 19.082031 4.4375 Z M 19.363281 4.4375 "/>
<path style=" stroke:none;fill-rule:evenodd;fill:rgb(85.098039%,0%,0%);fill-opacity:1;" d="M 0.484375 9.945312 L 0.660156 9.945312 L 0.660156 10.253906 L 0.484375 10.253906 Z M 5.1875 9.945312 L 5.363281 9.945312 L 5.363281 10.253906 L 5.1875 10.253906 Z M -3.125 9.945312 L -2.949219 9.945312 L -2.949219 10.253906 L -3.125 10.253906 Z M -0.738281 9.945312 L -0.5625 9.945312 L -0.5625 10.253906 L -0.738281 10.253906 Z M 1.632812 9.945312 L 1.808594 9.945312 L 1.808594 10.253906 L 1.632812 10.253906 Z M 2.804688 9.945312 L 2.980469 9.945312 L 2.980469 10.253906 L 2.804688 10.253906 Z M 4.003906 9.945312 L 4.179688 9.945312 L 4.179688 10.253906 L 4.003906 10.253906 Z M 6.359375 9.945312 L 6.535156 9.945312 L 6.535156 10.253906 L 6.359375 10.253906 Z M 12.304688 9.945312 L 12.484375 9.945312 L 12.484375 10.253906 L 12.308594 10.253906 Z M 7.558594 9.945312 L 7.734375 9.945312 L 7.734375 10.253906 L 7.558594 10.253906 Z M 8.730469 9.945312 L 8.90625 9.945312 L 8.90625 10.253906 L 8.730469 10.253906 Z M 9.914062 9.945312 L 10.089844 9.945312 L 10.089844 10.253906 L 9.914062 10.253906 Z M 11.097656 9.945312 L 11.273438 9.945312 L 11.273438 10.253906 L 11.097656 10.253906 Z M 20.566406 9.945312 L 20.742188 9.945312 L 20.742188 10.253906 L 20.566406 10.253906 Z M 13.457031 9.945312 L 13.632812 9.945312 L 13.632812 10.253906 L 13.457031 10.253906 Z M 14.652344 9.945312 L 14.828125 9.945312 L 14.828125 10.253906 L 14.652344 10.253906 Z M 15.863281 9.945312 L 16.039062 9.945312 L 16.039062 10.253906 L 15.863281 10.253906 Z M 17 9.945312 L 17.175781 9.945312 L 17.175781 10.253906 L 17 10.253906 Z M 18.210938 9.945312 L 18.382812 9.945312 L 18.382812 10.253906 L 18.210938 10.253906 Z M 19.390625 9.945312 L 19.570312 9.945312 L 19.570312 10.253906 L 19.390625 10.253906 Z M 22.898438 9.945312 L 23.074219 9.945312 L 23.074219 10.253906 L 22.898438 10.253906 Z M 21.761719 9.945312 L 21.9375 9.945312 L 21.9375 10.253906 L 21.761719 10.253906 Z M -1.933594 9.945312 L -1.757812 9.945312 L -1.757812 10.253906 L -1.933594 10.253906 Z M -1.933594 9.945312 "/>
<path style=" stroke:none;fill-rule:evenodd;fill:rgb(13.72549%,61.960784%,24.705882%);fill-opacity:1;" d="M 0.484375 4.765625 L 0.660156 4.765625 L 0.660156 5.070312 L 0.484375 5.070312 Z M 5.1875 4.765625 L 5.363281 4.765625 L 5.363281 5.070312 L 5.1875 5.070312 Z M -3.125 4.765625 L -2.949219 4.765625 L -2.949219 5.070312 L -3.125 5.070312 Z M -0.738281 4.765625 L -0.5625 4.765625 L -0.5625 5.070312 L -0.738281 5.070312 Z M 1.632812 4.765625 L 1.808594 4.765625 L 1.808594 5.070312 L 1.632812 5.070312 Z M 2.804688 4.765625 L 2.980469 4.765625 L 2.980469 5.070312 L 2.804688 5.070312 Z M 4.003906 4.765625 L 4.179688 4.765625 L 4.179688 5.070312 L 4.003906 5.070312 Z M 6.359375 4.765625 L 6.535156 4.765625 L 6.535156 5.070312 L 6.359375 5.070312 Z M 12.304688 4.765625 L 12.484375 4.765625 L 12.484375 5.070312 L 12.308594 5.070312 Z M 7.558594 4.765625 L 7.734375 4.765625 L 7.734375 5.070312 L 7.558594 5.070312 Z M 8.730469 4.765625 L 8.90625 4.765625 L 8.90625 5.070312 L 8.730469 5.070312 Z M 9.914062 4.765625 L 10.089844 4.765625 L 10.089844 5.070312 L 9.914062 5.070312 Z M 11.097656 4.765625 L 11.273438 4.765625 L 11.273438 5.070312 L 11.097656 5.070312 Z M 20.566406 4.765625 L 20.742188 4.765625 L 20.742188 5.070312 L 20.566406 5.070312 Z M 13.457031 4.765625 L 13.632812 4.765625 L 13.632812 5.070312 L 13.457031 5.070312 Z M 14.652344 4.765625 L 14.828125 4.765625 L 14.828125 5.070312 L 14.652344 5.070312 Z M 15.863281 4.765625 L 16.039062 4.765625 L 16.039062 5.070312 L 15.863281 5.070312 Z M 17 4.765625 L 17.175781 4.765625 L 17.175781 5.070312 L 17 5.070312 Z M 18.210938 4.765625 L 18.382812 4.765625 L 18.382812 5.070312 L 18.210938 5.070312 Z M 19.390625 4.765625 L 19.570312 4.765625 L 19.570312 5.070312 L 19.390625 5.070312 Z M 22.898438 4.765625 L 23.074219 4.765625 L 23.074219 5.070312 L 22.898438 5.070312 Z M 21.761719 4.765625 L 21.9375 4.765625 L 21.9375 5.070312 L 21.761719 5.070312 Z M -1.933594 4.765625 L -1.757812 4.765625 L -1.757812 5.070312 L -1.933594 5.070312 Z M -1.933594 4.765625 "/>
<path style=" stroke:none;fill-rule:evenodd;fill:rgb(85.490196%,0%,0%);fill-opacity:1;" d="M 10.695312 5.785156 C 10.945312 6.089844 11.707031 7.765625 10.238281 8.867188 C 9.542969 9.390625 9.972656 9.414062 9.992188 9.5 C 11.109375 8.914062 11.46875 8.109375 11.460938 7.390625 C 11.453125 6.675781 11.070312 6.042969 10.695312 5.785156 Z M 10.695312 5.785156 "/>
<path style=" stroke:none;fill-rule:evenodd;fill:rgb(85.490196%,0%,0%);fill-opacity:1;" d="M 10.84375 5.707031 C 11.394531 6.042969 11.765625 6.605469 11.855469 7.246094 C 11.945312 7.882812 11.742188 8.527344 11.304688 9 C 12.101562 8.824219 13.121094 6.46875 10.84375 5.707031 Z M 9.15625 5.707031 C 8.605469 6.042969 8.234375 6.605469 8.148438 7.246094 C 8.058594 7.882812 8.261719 8.527344 8.699219 9 C 7.898438 8.824219 6.882812 6.46875 9.15625 5.707031 Z M 9.15625 5.707031 "/>
<path style=" stroke:none;fill-rule:evenodd;fill:rgb(85.490196%,0%,0%);fill-opacity:1;" d="M 9.304688 5.785156 C 9.054688 6.089844 8.292969 7.765625 9.761719 8.867188 C 10.453125 9.390625 10.027344 9.414062 10.007812 9.5 C 8.890625 8.914062 8.53125 8.109375 8.539062 7.390625 C 8.546875 6.675781 8.929688 6.042969 9.304688 5.785156 Z M 9.304688 5.785156 "/>
<path style=" stroke:none;fill-rule:evenodd;fill:rgb(85.490196%,0%,0%);fill-opacity:1;" d="M 11.414062 9.347656 C 10.976562 9.355469 10.429688 9.289062 10.019531 9.078125 C 10.085938 9.207031 10.144531 9.289062 10.210938 9.417969 C 10.597656 9.457031 11.132812 9.5 11.414062 9.347656 Z M 8.628906 9.347656 C 9.066406 9.355469 9.613281 9.289062 10.019531 9.078125 C 9.953125 9.207031 9.898438 9.289062 9.828125 9.417969 C 9.445312 9.457031 8.90625 9.5 8.628906 9.347656 Z M 9.429688 5.285156 C 9.515625 5.519531 9.75 5.554688 9.992188 5.417969 C 10.175781 5.523438 10.453125 5.53125 10.550781 5.296875 C 10.625 5.878906 10.015625 5.738281 9.992188 5.625 C 9.765625 5.84375 9.34375 5.71875 9.429688 5.285156 Z M 9.429688 5.285156 "/>
<path style=" stroke:none;fill-rule:evenodd;fill:rgb(85.490196%,0%,0%);fill-opacity:1;" d="M 10.011719 9.714844 L 10.242188 9.453125 L 10.273438 5.933594 L 10 5.691406 L 9.726562 5.921875 L 9.78125 9.464844 Z M 10.011719 9.714844 "/>
</g>
</svg>
